<?xml version="1.0" encoding="utf-8"?>
<!-- Generator: Adobe Illustrator 26.0.3, SVG Export Plug-In . SVG Version: 6.00 Build 0)  -->
<svg version="1.0" id="katman_1" xmlns="http://www.w3.org/2000/svg" xmlns:xlink="http://www.w3.org/1999/xlink" x="0px" y="0px"
	 viewBox="0 0 600 450" style="enable-background:new 0 0 600 450;" xml:space="preserve">
<style type="text/css">
	.st0{clip-path:url(#SVGID_00000003096892179491587960000013569189514841532821_);}
	.st1{fill:url(#SVGID_00000142856032257251022910000002248393308820826283_);}
	.st2{fill:#FFFFFF;}
	.st3{opacity:0.8;}
	
		.st4{fill:none;stroke:url(#SVGID_00000003067223355841088360000015311150523138962837_);stroke-width:0.8533;stroke-miterlimit:10;}
	
		.st5{fill:none;stroke:url(#SVGID_00000150060997406384476860000004775753438862336703_);stroke-width:0.8533;stroke-miterlimit:10;}
	.st6{fill:none;stroke:url(#SVGID_00000014606580097147091370000015756519722879008930_);stroke-width:0.8;stroke-miterlimit:10;}
	
		.st7{fill:none;stroke:url(#SVGID_00000092428395882482557930000001634602653159452338_);stroke-width:0.7466;stroke-miterlimit:10;}
	
		.st8{fill:none;stroke:url(#SVGID_00000061465915800496704660000007132421187050912130_);stroke-width:0.6933;stroke-miterlimit:10;}
	
		.st9{fill:none;stroke:url(#SVGID_00000171691187652485191670000003705632594741481372_);stroke-width:0.6933;stroke-miterlimit:10;}
	.st10{fill:#1D1D1B;}
</style>
<g>
	<g>
		<defs>
			<path id="SVGID_1_" d="M107.6,169L107.6,169c34.1,0,61.7,27.6,61.7,61.7l0,0c0,34.1-27.6,61.7-61.7,61.7l0,0
				c-34.1,0-61.7-27.6-61.7-61.7l0,0C45.9,196.6,73.5,169,107.6,169z"/>
		</defs>
		<clipPath id="SVGID_00000011032621307886019890000014655794606890965427_">
			<use xlink:href="#SVGID_1_"  style="overflow:visible;"/>
		</clipPath>
		<g style="clip-path:url(#SVGID_00000011032621307886019890000014655794606890965427_);">
			
				<radialGradient id="SVGID_00000123416455692482295160000012814693941384631946_" cx="2.7676" cy="451.8776" r="0.8391" gradientTransform="matrix(0 82.5756 82.5756 0 -37206.4648 8.5645)" gradientUnits="userSpaceOnUse">
				<stop  offset="0.1667" style="stop-color:#073183"/>
				<stop  offset="1" style="stop-color:#0054F9"/>
			</radialGradient>
			<path style="fill:url(#SVGID_00000123416455692482295160000012814693941384631946_);" d="M107.6,169L107.6,169
				c34.1,0,61.7,27.6,61.7,61.7l0,0c0,34.1-27.6,61.7-61.7,61.7l0,0c-34.1,0-61.7-27.6-61.7-61.7l0,0C45.9,196.6,73.5,169,107.6,169
				z"/>
			<g>
				<path class="st2" d="M149.5,211.4c-0.3,1.5-0.6,2.2-0.9,3.1l0,0c-0.4,0.9-0.8,2-1.2,4c-0.2,0.8-0.2,1.4-0.3,2l0,0l0,0
					c-0.1,0.9-0.2,1.4-0.5,2.5c-0.3,0.8-0.8,2.2-1.9,3.7c-0.9,1.2-2.5,3.3-4.5,3.5c-0.2,0-0.6,0-0.7,0c-5.8-3-10.8-5.2-12.6-5.7
					c-2-0.6-1.8-5-1.5-8.8c0.1-1.7,0.2-3.4,0.1-4.8c-0.3-4.9-1.1-10.2-5.4-12.9c-2.5-1.6-5.8-2-9-2c0.6-0.3,1.2-0.7,1.9-1.1l0,0
					c1.8-1.1,4.1-2.4,6.4-2.6c0.7-0.1,1.5-0.2,2.2-0.2c4.6-0.5,8.6-1,12.7,0.5c1.9,0.7,5.8,2.8,6.8,4.8c0.7,1.4,1.9,2.5,4.3,4.7
					c1.2,1.2,2.1,1.8,2.7,2.3l0,0c0.8,0.7,1,0.8,1.3,1.3C150.2,207.4,149.9,209.1,149.5,211.4z"/>
				<path class="st2" d="M128.2,231.5c0.3,0.1,0.5,0.5,0.3,0.8c-0.6,0.9-1.3,2.2-2.1,3.7c-0.4,0.7-0.8,1.5-1.1,2
					c-1.1,1.9-1.2,3.6-1.3,4.9c-0.1,1.4-0.1,2-1,2.5c-0.7,0.5-1.4,0.6-6.2,1.3c-0.8,0.1-1.2,0.3-1.5,0.4c-0.1,0-0.1,0-0.2,0.1
					c-0.3,0.1-0.7-0.1-0.6-0.5c0-0.7,0.1-1.5,0.1-2.5V244c0-0.9,0-1.7,0-2.3c-0.1-1.2-0.1-1.7,0.3-2.3c0.4-0.6,0.7-0.8,1.2-1.2
					c0.7-0.5,1.7-1.1,3.2-3.1c0.8-1.1,0.9-1.6,1.1-2.1c0-0.2,0.1-0.3,0.7-0.7c0.6-0.5,2.5-1.9,5-1.5
					C126.5,230.9,127.4,231.2,128.2,231.5L128.2,231.5z"/>
				<path class="st2" d="M109.3,253.6c-0.1,0.1-0.2,0.2-0.4,0.2c-0.5,0-0.9-0.1-1.1-0.4c-0.5-0.6-0.4-1.8-0.3-2.5l2-0.5
					C109.6,251.5,109.7,253,109.3,253.6z"/>
				<path class="st2" d="M109.4,246.3c0,0.3-0.1,0.6-0.1,1c0,0.1,0,0.3,0,0.4c0,0.3,0,0.9,0,1.1c-0.6,0.2-1.2,0.2-1.9,0.2
					c0-0.2,0-0.5,0-0.7c0-0.2,0-0.3,0-0.5c0-0.2,0-0.3,0-0.5c0-0.4,0-1,0.1-1.2c0.2,0,0.4-0.1,0.6-0.1c0.4-0.1,1-0.2,1.3-0.2
					C109.5,245.9,109.4,246.1,109.4,246.3z"/>
				<path class="st2" d="M105.7,253c-0.1,1-0.4,2.3-1.4,2.5c-0.4,0.1-0.7,0-0.8-0.2c-0.7-0.6-0.8-2.5-0.7-3.8c0.4,0,1-0.1,1.7-0.2
					c0.4-0.1,0.8-0.2,1.2-0.2C105.7,251.6,105.7,252.3,105.7,253z"/>
				<path class="st2" d="M105.2,249.3L103,250c0.1-0.9,0.3-2.1,0.3-2.9c0-0.6,0.2-0.7,0.2-0.8c0,0,0,0,0.1,0c0,0,0,0,0,0l0,0
					l1.4-0.1C105.2,247,105.2,248.4,105.2,249.3z"/>
				<path class="st2" d="M101.7,248.6c-0.1,0.3-0.3,1.3-0.4,1.9l-2.8-0.1c0.2-0.9,0.4-1.7,0.6-2.4c0.2-0.7,0.5-1.2,0.7-1.3
					c0.3-0.2,0.9-0.2,1.3,0.1C101.7,247.3,101.9,247.9,101.7,248.6z"/>
				<path class="st2" d="M100.6,257c-0.2,0.3-0.5,0.4-0.7,0.5c-0.3,0-0.5,0-0.7-0.2c-0.9-0.8-0.8-3.4-0.8-4.7c1.1-0.3,2.4-0.5,3-0.5
					C101.5,253.1,101.5,255.9,100.6,257z"/>
				<path class="st2" d="M97,250.3c-0.1,0.4-0.3,0.7-0.4,1c-0.3,0.1-1.3,0-2.3-0.2l0.7-4.3c1.1-0.3,2.4-0.4,2.8-0.1
					C98.2,247.2,97.4,249.4,97,250.3z"/>
				<path class="st2" d="M95.8,257.7c-0.5,0.7-1.3,1-2.5,1c-0.8,0-1.1-0.3-1.2-0.5c-0.6-1,0-3.3,0.6-4.8l3.7,0.2
					c0,0.3,0.1,0.6,0.1,0.9C96.6,255.5,96.5,256.8,95.8,257.7z"/>
				<path class="st2" d="M126.6,226.2c-3.4-1-3.1-5.9-2.8-10.6c0.1-1.7,0.2-3.3,0.1-4.6c-0.3-4.4-1-9.3-4.6-11.5
					c-3.8-2.4-10.1-1.8-14-1.3c0,0,0,0,0,0c0,0,0,0,0,0c-1.4,0.4-2.8,0.7-3.8,0.7c-2.3-0.1-4.1-1.1-5.6-1.9
					c-1.2-0.7-2.3-1.2-3.3-1.2c-0.1,0-0.1,0-0.2,0c-3,0.2-4.4,0.9-5.6,2.1c-0.3,0.3-0.7,1.1-2,4.7c-0.6,1.8-0.8,2.8-0.9,3.8
					c-0.1,0.9-0.2,1.8-0.7,3.2c-0.3,0.9-0.6,1.8-0.8,2.5c-0.6,2.1-1.1,3.7-2.6,5.7c-0.2,0.2-0.4,0.6-0.6,1c-0.3,0.5-0.7,1.2-1.3,1.9
					c-0.4,0.5-1.3,2.5-1.2,3.1c0.1,1,0.4,1.6,0.7,2.3c0.4,0.7,0.8,1.5,0.8,2.6l0,0.2c0.1,1.7-0.1,2.6-3.4,5.5
					c-2.1,1.9-3.6,3.7-4.6,5c-0.1,0.1,0,0.3,0.2,0.3c0,0,0.1,0,0.1,0c0.1,0,0.1,0,0.2,0c0.1,0,0.1,0,0.2,0c0.1,0,0.1,0,0.2,0
					c0.8,0.1,1.6,0.4,2.1,1c0.1,0.1,0.2,0.1,0.4,0.1c0.5-0.2,1.1-0.2,1.7-0.1c0.7,0.1,1.3,0.3,1.8,0.7c0.2,0.2,0.4,0.2,0.6,0.2
					c0.5-0.1,1.1-0.1,1.6,0.1c0.4,0.1,0.7,0.4,1,0.6c0.2,0.3,0.7,0.3,1,0.1c0.1-0.1,0.3-0.1,0.4-0.2c0.7-0.2,1.5-0.1,2.2,0.1
					c0.3,0.1,0.7,0.2,1,0.4c0.5,0.3,0.8,0.8,1.1,1.4c0.2,0.4,0.7,0.6,1.1,0.3c0.4-0.3,0.8-0.4,1.2-0.2c0.1,0.1,0.3,0.2,0.4,0.3
					c0.3,0.3,0.7,0.6,1.1,0.5c1.1-0.3,2.4-0.1,3.3,0.4c0.4,0.2,0.7,0.5,1,0.9c0,0,0,0,0,0c0,0,0,0,0,0l0-0.2c0-0.1,0.1-0.2,0.2-0.2
					l0.2-0.1c0.5-0.2,3.3-1,4.4,0.2c0,0,0.1,0.1,0.2,0c0.1-0.2,0.3-0.2,0.3-0.3c0.7-0.4,1.9-0.5,2.7,0.2c0.2,0.1,0.4,0.1,0.5-0.1
					c0.1-0.1,0.2-0.2,0.3-0.3c0.3-0.2,0.6-0.4,1-0.3l1.5-0.1c0.4,0,1.6-0.1,2-0.2c0,0,0.1,0,0.1,0c0.2,0,0.3-0.1,0.5-0.1
					c0.7-0.2,1.6-0.3,2.3,0c0.7,0.3,0.6,1.1,0.5,1.7c0,0.3-0.1,0.6-0.1,0.8c0,0.1,0,0.3,0,0.4c0,0.6,0,1.1-0.1,1.5c0,0,0,0,0,0
					c0,0,0,0,0,0l0.1,0.3c0.1,0.3,0.4,0.5,0.7,0.3c0.5-0.3,1-0.7,1.2-1c0,0,0,0,0-0.1c0-0.1,0.1-0.2,0.1-0.5
					c0.1-0.6,0.2-1.7,0.2-4.1c0-0.1,0-0.2,0-0.3c0-0.9,0-1.6,0-2.2c-0.1-1.3-0.1-2.3,0.5-3.3c0.6-1,1.2-1.4,1.8-1.7
					c0.7-0.4,1.4-0.9,2.7-2.6c0.6-0.9,0.7-1.2,0.8-1.5c0.1-0.6,0.3-1,1.3-1.8c0.8-0.6,3.1-2.4,6.3-1.8c1,0.2,2.7,0.7,4.4,1.4
					c0,0,0,0,0,0s0,0,0,0c0.1,0,0.1,0,0.2,0.1c0,0,0.1,0,0.1,0c1.5,0.6,2.9,1.2,3.8,1.7c0.3,0.1,0.6,0.1,0.8-0.2
					c0.3-0.3,0.6-0.6,0.9-0.8c0.1-0.1,0.2-0.1,0.3-0.2c0.3-0.3,0.3-0.8-0.1-1C132.2,227.9,128,226.6,126.6,226.2L126.6,226.2z
					 M94.6,227.2c-1,4.5-8.1,9.6-11.3,9.6h-0.1c-0.1,0-0.1,0-0.2,0c-0.1,0-0.1,0-0.2,0c0,0-0.1,0-0.1,0c-0.6-0.2-1.4-0.6-2-1.2
					c-0.4-0.4-0.7-0.9-0.9-1.4c0-0.1,0-0.2-0.1-0.3c-0.2-0.8-0.4-1.7,0.3-3.3c0.1-0.2,0.2-0.4,0.3-0.6c0-0.1,0.1-0.1,0.1-0.2
					c0.1-0.2,0.1-0.3,0.2-0.5c0.1-0.2,0.2-0.4,0.2-0.6c0-0.1,0.1-0.1,0.1-0.2c0.2-0.5,0.2-0.8,0.2-1c0-0.2,0-0.4,0.1-0.7
					c0.2-0.9,0.3-1.6,0.4-2.2c0.2-1.2,0.3-2.2,0.9-3.1c0.1-0.2,0.2-0.3,0.4-0.4c0,0,0.1-0.1,0.1-0.1c0,0,0.1-0.1,0.1-0.1
					c0.2-0.1,0.3-0.2,0.5-0.3c0.1,0,0.1-0.1,0.2-0.1c0.1,0,0.3-0.1,0.4-0.1c0.6-0.1,1.3-0.2,2-0.1c0.9,0.1,1.6,0.2,2.3,0.4
					c0.6,0.2,1.1,0.3,1.5,0.5c0,0,0.1,0,0.1,0.1c0.1,0,0.2,0.1,0.2,0.1c0.1,0.1,0.2,0.1,0.3,0.1c0.1,0.1,0.3,0.1,0.4,0.2l0.1,0
					c0.5,0.2,0.9,0.5,1.3,0.7c0.2,0.1,0.3,0.3,0.5,0.4c0.1,0,0.1,0.1,0.1,0.1c0,0,0.1,0.1,0.1,0.1C94.9,224.6,94.8,226.2,94.6,227.2
					z M97.9,210l-0.1,0.8c-0.3,1.9-1,4.4-3.7,5.1c-2.6,0.6-3.2,0.8-5,0.8c0,0-0.1,0-0.1,0c-1.3,0-3.9-0.8-4.4-2.9
					c-0.3-1.4,0.3-2.3,1.3-4c0.2-0.3,0.3-0.6,0.5-0.9c1.3-2.2,1.8-3.8,2.2-5c0.4-1.2,0.7-2.3,1.6-3.1c0.2-0.2,0.4-0.4,0.7-0.6
					c0.2-0.1,0.3-0.2,0.5-0.3c0.2-0.1,0.5-0.2,0.8-0.3c0.6-0.2,1.2-0.3,1.9-0.3c1.2,0,2.5,0.4,3.4,1.1c0.4,0.3,1,1,1.3,2.9
					C98.8,204.2,98.5,206,97.9,210z M117,215.3c-0.9,1.6-1.4,2.5-2.2,3.1c-1.6,1.3-3.4,1.6-4.9,1.6c-1.1,0-2-0.2-2.6-0.3
					c-1.6-0.3-4.5-0.8-5.5-3.1c-0.2-0.5-0.2-0.7-0.2-1.1c0-0.4,0-1-0.2-2.4l0-0.1c-0.1-0.7-0.2-1.4,0-2.4l0-0.1
					c0.5-2.8,0.7-3.2,0.8-3.5c0.3-0.5,1-0.8,1.5-0.5c0.5,0.3,0.8,0.9,0.5,1.5c-0.1,0.2-0.2,0.8-0.6,2.9l0,0.1
					c-0.1,0.6-0.1,1.1,0,1.7l0,0.1c0.2,1.6,0.2,2.3,0.2,2.7c0,0.1,0,0.1,0,0.2c0,0,0,0,0,0.1c0.2,0.4,0.5,0.7,0.9,0.9
					c0.4,0.2,0.8-0.2,0.7-0.6c-0.5-2.4-0.4-5.2,0.5-6.9c0.3-0.6,0.9-1.6,1.4-2.5c0,0,0,0,0,0c0,0,0,0,0,0c0.1-0.1,0.1-0.2,0.2-0.3
					c0-0.1,0.1-0.2,0.1-0.2c0.2-0.4,0.5-0.8,0.6-1c0,0,0-0.1,0.1-0.1c0,0,0-0.1,0.1-0.1c0-0.1,0.1-0.1,0.1-0.2c0,0,0,0,0-0.1
					c0,0,0,0,0,0c0,0,0-0.1,0-0.1c0,0,0.1-0.1,0.1-0.1c0,0,0,0,0,0c0,0,0,0,0,0c0,0,0,0,0,0c0.1-0.2,0.3-0.4,0.4-0.6
					c0.3-0.4,0-0.9-0.5-0.7c-0.8,0.4-1.3,0.8-1.4,0.8c-0.5,0.4-1.2,0.3-1.6-0.2c-0.4-0.5-0.3-1.2,0.2-1.6c0.6-0.5,3.6-2.7,7.3-1.6
					c2.6,0.7,4,2.8,4.5,3.5c0.4,0.6,1.7,2.5,1.7,5.1C119.3,211.2,118.5,212.7,117,215.3L117,215.3z"/>
				<path class="st2" d="M93.2,201.6c-0.2,0.5-0.4,1-0.7,1.6c-0.6,1.4-1.2,3-1.5,3.6c-0.5,1-0.9,1.6-1.3,2.1c-0.4,0.6-0.7,1-0.9,1.7
					c-0.4,1.1-0.5,2.4-0.2,3.8c-0.7-0.1-1.8-0.6-2-1.2c-0.1-0.5,0.2-0.9,1-2.3c0.2-0.3,0.3-0.6,0.5-0.9c1.4-2.4,2-4.2,2.4-5.5
					c0.5-1.4,0.7-2,1.4-2.5C92.4,201.9,92.8,201.7,93.2,201.6z"/>
				<path class="st2" d="M91.8,252c-0.8,1.6-1.7,3-2.3,3.8c-0.5-1.3-1.4-4.4-1.1-6.9c0-0.1,0-0.1,0-0.2c0.1-0.8,0.3-1.5,0.7-2
					c0.2-0.4,0.9-0.6,1.7-0.6c0.6,0,1.2,0.1,1.7,0.4h0c0.3,0.1,0.7,0.5,0.7,1.3C93.1,248.9,92.6,250.5,91.8,252z"/>
				<path class="st2" d="M134.4,234.2c0.1,0,0.1,0.1,0.1,0.2c-0.2,0.5-0.5,0.8-0.8,1.2c-0.4,0.5-0.8,1-1.3,1.8
					c-0.6,1.2-0.8,2.3-0.9,5c-0.1,3.2,0,5.1,0.1,6.4c0.1,1.3,0.1,2.1-0.1,3.3c-0.5,2.5-1.5,4.2-2.9,6.3c-1.7,2.6-3.5,5.4-6.4,6.3
					c-0.3,0.1-0.3,0.1-1,0.1c-0.7,0-1.8,0-3.9,0.1c-3.8,0.1-5.8,0.2-7.4,0.5c-1.7,0.3-2.6,0.7-3.5,1.1c-0.8,0.3-1.5,0.6-3,0.9
					c-0.8,0.2-2.1,0.4-6.4,0.4c-4.5,0-7.2,0-10.8-0.4c-4.9-0.6-7.4-0.8-9-1.7c-3.9-2.1-5.5-5.8-8.2-11.9c0,0,0,0,0,0
					c0-0.1,0.1-0.2,0.1-0.1c0.1,0.1,0.3,0.1,0.4,0.2c0.1,0,0.2,0.1,0.4,0.1c0.2,0,0.5,0,0.8,0c0,0,0.1,0,0.1,0c0,0,0,0,0,0
					c0,0,0.1,0,0.1,0c0.2,0.5,0.4,0.9,0.9,1.1c0.5,0.2,1,0.3,1.5,0.3c0.5,0,1.1,0,1.6-0.1c0.3,0,0.6,0.1,0.7,0.4
					c0.5,1.2,1.1,2,2,2.1c0,0,0.1,0,0.2,0c0.2,0,0.4,0,0.8-0.3c0.4-0.3,1.1-0.1,1.4,0.3c0.2,0.2,0.4,0.4,0.6,0.5
					c0.9,0.9,3.2,1.4,5,1.4c1,0,1.9-0.1,2.5-0.4c0.8-0.4,0.8-1,0.7-1.2c-0.1-0.4-0.1-0.8-0.2-1.2c0,0,0.1-0.1,0.1,0
					c0.1,0.2,0.2,0.6,0.6,0.6c0,0,0.1,0,0.1,0c0.5,0,1.3,0.2,1.5,0.7c0.1,0.3,0.2,0.5,0.3,0.7c0.3,0.5,1,1.1,2.2,1.1h0.1
					c1.5,0,2.6-0.5,3.3-1.4c0-0.1,0.1-0.1,0.1-0.2c0.3-0.4,1.1-0.4,1.4-0.1c0.4,0.4,0.9,0.5,1.4,0.5c0.1,0,0.2,0,0.3,0
					c0.7-0.1,1.2-0.4,1.6-1c0.3-0.4,0.5-0.9,0.6-1.4c0-0.2,0.3-0.2,0.4-0.1c0.3,0.3,0.7,0.5,1.4,0.5c0.2,0,0.3,0,0.5-0.1
					c1.3-0.3,1.9-1.3,2.2-2.5c0,0,0.1-0.1,0.1,0c0.3,0.4,0.9,0.8,1.9,0.8c0.1,0,0.1,0,0.2,0c0.5,0,1-0.3,1.3-0.7
					c0.4-0.5,0.6-1.3,0.6-2c0-0.3,0.2-0.5,0.5-0.6c1.1-0.5,2.3-1.4,2.7-2.1c0,0,0,0,0,0c0.1-0.2,0.3-0.4,0.5-0.4
					c0.8-0.2,1.2-0.3,1.5-0.5c0.3-0.1,0.5-0.2,1.1-0.3c4.9-0.7,5.8-0.9,6.9-1.6c1.6-1.1,1.7-2.5,1.7-3.9c0.1-1.2,0.1-2.5,1.1-4.1
					c0.3-0.6,0.7-1.3,1.1-2.1c0.7-1.3,1.7-3.1,2.4-4.1c0.2-0.2,0.5-0.3,0.7-0.2C132.7,233.2,134.1,233.9,134.4,234.2L134.4,234.2z"
					/>
				<path class="st2" d="M87.1,248.7c-0.2,1.7-0.3,3.9,0,6.9c0.1,0.8,0.2,1.7,0.3,2.6c-0.2,0.1-0.9,0.3-2.1,0.3c-1.8,0-3.5-0.5-4-1
					l-0.1-0.1c-0.4-0.3-0.7-0.6-0.7-1.2c0-0.2,0.1-0.4,0.3-0.7c0.1-0.2,0.2-0.4,0.4-0.6c0.3-0.4,0.7-0.9,1-1.5
					c1.1-1.9,1.5-2.4,2-3.2c0-0.1,0.1-0.1,0.1-0.2c0.3-0.4,0.7-0.9,1.2-1.8c0.4-0.6,0.8-1.1,1-1.5c0.5-0.6,0.8-1,1-1.2
					c0,0.3-0.1,0.7-0.2,1.1C87.3,247.1,87.2,247.8,87.1,248.7L87.1,248.7z"/>
				<path class="st2" d="M86.3,222.5C86.3,222.5,86.3,222.5,86.3,222.5c-0.3,0.4-0.5,0.7-0.8,1.4c-0.8,1.9-0.9,2.9-0.9,3.8
					c0,0.4,0,0.8-0.1,1.2c-0.1,0.3-0.2,0.6-0.4,0.9c-0.5,1.1-1.1,2.6-0.9,4.6c-0.4-0.2-1-0.6-1.1-0.9c0-0.1,0-0.2-0.1-0.3
					c-0.1-0.6-0.2-1,0.2-1.9c1-2.4,1.2-3,1.3-3.6c0-0.1,0-0.3,0.1-0.4c0.2-0.9,0.3-1.8,0.4-2.4c0.1-1,0.2-1.6,0.6-2.1
					c0.1-0.2,0.5-0.3,1-0.3c0.2,0,0.4,0,0.7,0L86.3,222.5C86.2,222.5,86.3,222.5,86.3,222.5z"/>
				<path class="st2" d="M84.9,246.2c-0.1-0.6-0.2-1.2-0.4-1.7c0,0-0.1-0.2-0.1-0.2c0-0.1-0.1-0.1-0.1-0.2c0,0,0,0,0,0c0,0,0,0,0,0
					c0,0,0-0.1-0.1-0.1c0,0-0.1-0.1-0.1-0.1c0,0,0,0,0,0c0,0,0,0-0.1,0c0,0-0.1,0-0.1-0.1c0,0,0,0-0.1,0c0,0,0,0,0,0c0,0,0,0,0,0
					c0,0,0,0,0,0c0,0,0,0,0,0s0,0,0,0c0,0,0,0,0,0c-0.3-0.1-0.7-0.3-1-0.3c0,0,0,0,0,0h0c0,0-0.1,0-0.1,0c0,0-0.1,0-0.1,0
					c0,0,0,0-0.1,0h0c0,0,0,0,0,0c0,0,0,0,0,0s0,0,0,0c-0.1,0-0.2,0-0.2,0.1c0,0-0.1,0-0.1,0.1c0,0-0.1,0-0.1,0.1c0,0,0,0,0,0l0,0
					c0,0-0.1,0.1-0.1,0.1c0,0,0,0.1-0.1,0.1c0,0,0,0,0,0c0,0,0,0,0,0c0,0,0,0,0,0c0,0,0,0,0,0c0,0,0,0,0,0c-0.1,0.2-0.3,0.4-0.4,0.6
					c-0.3,0.5-0.7,1-1,1.5c-0.3,0.4-0.6,0.9-0.9,1.3c-0.2,0.2-0.3,0.5-0.5,0.7c0,0-0.1,0.1-0.1,0.1c0.2,0,0.4,0.1,0.6,0.1
					c0.5,0.1,0.9,0.2,1.4,0.2c0.9,0.1,1.9,0.2,2.9,0.2c0,0,0.1,0,0.1,0c0.2-0.3,0.5-0.7,0.8-1.2c0.2-0.3,0.4-0.6,0.5-0.8
					C85,246.5,84.9,246.4,84.9,246.2L84.9,246.2z"/>
				<path class="st2" d="M81.6,250.1c-0.1,0.7-0.9,2.6-2.2,4.4c-1.1,1.5-1.7,1.9-1.8,1.9c-0.5-0.1-1-1.3-1.4-2.6
					c-0.2-0.5-0.3-1-0.4-1.4c-0.3-1-0.3-2.2-0.3-3c1.1,0.6,2.9,0.8,5.6,0.8h0C81.2,250.1,81.4,250.1,81.6,250.1z"/>
				<path class="st2" d="M79.7,244.1L79.7,244.1C79.7,244.2,79.7,244.2,79.7,244.1c-0.5,0.7-0.9,1.4-1.4,2.1c-0.2,0.3-0.5,0.7-0.7,1
					c-0.1,0.2-0.3,0.4-0.4,0.6c-0.4-0.1-0.8-0.2-1.1-0.3c-0.3-0.1-0.6-0.2-0.9-0.3c-0.1,0-0.1,0-0.2-0.1c0-0.1-0.1-0.2-0.2-0.3
					c0,0,0,0,0,0c0.1-0.2,0.2-0.4,0.3-0.7c0.2-0.4,0.4-0.8,0.6-1.2c0.4-0.7,0.9-1.4,1.6-1.9c0,0,0.1,0,0.1-0.1
					c0.3-0.2,0.5-0.3,0.9-0.3c0,0,0.3,0,0.4,0c0,0,0,0,0,0h0c0,0,0,0,0,0c0.1,0,0.2,0,0.2,0.1c0,0,0.1,0,0.1,0
					c0.1,0,0.1,0.1,0.2,0.1c-0.1-0.1,0.1,0.2,0.1,0.2C79.6,243.5,79.6,243.8,79.7,244.1z"/>
				<path class="st2" d="M76.1,242.2c-0.8,0.7-1.4,1.6-2,2.6c-0.3,0.5-0.5,1.1-0.8,1.6c0,0.1-0.1,0.1-0.1,0.2
					c-0.3-0.1-0.5-0.1-0.8-0.2c-0.3-0.1-0.5-0.2-0.8-0.3c-0.1-0.1-0.2-0.1-0.3-0.2c0.3-0.5,0.6-0.9,0.8-1.4c0.4-0.6,0.8-1.2,1.3-1.8
					c0.2-0.2,0.4-0.5,0.6-0.6c0.3-0.2,0.6-0.1,0.9-0.1c0.3,0,0.6,0,0.9,0.1C76,242.2,76.1,242.2,76.1,242.2z"/>
				<path class="st2" d="M74.8,253.5c0,0-0.1,0.1-0.1,0.1c0,0-0.1,0-0.1,0c-0.2,0-0.4,0-0.6,0c-0.4,0-0.8,0-1.2,0
					c-0.2,0-0.4,0-0.5-0.2c-0.1-0.2-0.2-0.6-0.2-0.9c-0.3-1.4-0.3-2.9-0.1-4.4c0.7,0.3,1.5,0.5,2.3,0.6c-0.2,1.3,0.1,3.2,0.3,3.8
					C74.6,253,74.7,253.2,74.8,253.5z"/>
				<path class="st2" d="M72.4,241.8c-0.7,0.8-1.3,1.7-1.8,2.6c-0.2,0.4-0.5,0.7-0.6,1.1c-0.3-0.1-0.5-0.2-0.8-0.3
					c-0.2-0.1-0.4-0.3-0.6-0.4c0,0-0.2-0.1-0.2-0.2c0,0,0,0-0.1,0c0.1-0.2,0.2-0.4,0.2-0.5c0.1-0.3,0.3-0.6,0.5-0.9
					c0.3-0.5,0.7-1.1,1-1.6c0.1-0.2,0.3-0.4,0.5-0.5c0.2-0.1,0.5,0,0.6,0C71.7,241.2,72,241.4,72.4,241.8L72.4,241.8z"/>
				<path class="st2" d="M67.3,245.3C67.3,245.3,67.3,245.3,67.3,245.3c0.3,0.2,0.5,0.4,0.8,0.6c0.1,0.1,0.2,0.2,0.3,0.3
					c0,0,0,0,0,0.1c-0.3,1.1-0.5,2.3-0.5,3.4c0,0.1-0.1,0.1-0.1,0C67.5,248.3,67,246.1,67.3,245.3z"/>
				<path class="st2" d="M70.5,247.8c-0.1,1-0.2,2-0.2,3c0,0.5,0.1,1.1,0.2,1.6c0,0,0,0,0,0v0c-0.1,0-0.2,0-0.4,0c0,0,0,0-0.1,0h0
					c0,0,0,0-0.1,0c-0.1,0-0.2,0-0.3-0.1c-0.1-0.1-0.3-0.3-0.4-0.4c-0.3-0.5-0.3-1-0.3-1.5c0-1,0-2,0.2-3.1c0.2,0.1,0.3,0.1,0.5,0.2
					C70,247.6,70.3,247.7,70.5,247.8L70.5,247.8L70.5,247.8z"/>
			</g>
			<g class="st3">
				
					<linearGradient id="SVGID_00000033329476302998119540000000633813375162624447_" gradientUnits="userSpaceOnUse" x1="158.18" y1="222.2265" x2="299.5285" y2="73.8738" gradientTransform="matrix(1 0 0 -1 -120.9449 377.3622)">
					<stop  offset="0.2057" style="stop-color:#89D0FF"/>
					<stop  offset="0.3984" style="stop-color:#EBBF9A"/>
					<stop  offset="0.6015" style="stop-color:#EB8280"/>
					<stop  offset="0.8411" style="stop-color:#A281FF"/>
				</linearGradient>
				
					<path style="fill:none;stroke:url(#SVGID_00000033329476302998119540000000633813375162624447_);stroke-width:0.8533;stroke-miterlimit:10;" d="
					M96.7,299.6c-4.5,0-8.8-0.3-12.4-0.6l-1-0.1l-1-0.1c-0.4-0.1-1-0.1-1.6-0.2c-3.5-0.4-9.9-1.1-17-4.4l-1.1-0.5l-1-0.6
					c-13.6-7.6-18.8-19.2-21.5-25.3c-0.2-0.4-0.4-0.9-0.6-1.3c-1.4-2.8-2.3-5.4-3-7.7l-0.2-0.5l-0.1-0.5c-2-7-2.5-13.1-1.6-19.1
					c0.9-6,3.1-11.5,7-17.3l2-3.3c0.4-0.7,0.7-1.4,0.9-2.2c1.5-7.6,5-13,6.7-15.6c0.5-3.1,1.2-6.2,2.3-9.1l0.2-0.4l0.2-0.4
					c0-0.1,0.1-0.2,0.1-0.4c0.8-2.3,2.6-7.7,7.2-13.4l1.7-2.1l1.8-1.6c4.5-4.1,9.9-7.2,15.8-8.9c3.3-1,6.7-1.6,10.1-1.8l0.3,0l0.5,0
					c0.6,0,1.2,0,1.8,0c2.1,0,4.3,0.2,6.4,0.5c1.3,0.2,2.7,0.1,3.9-0.4c3.6-1.5,7.5-2.5,11.4-3.1c0.3,0,0.6-0.1,0.8-0.1
					c0.6-0.1,1.6-0.2,2.8-0.3c2.1-0.2,5.2-0.4,8.7-0.4c6.7,0,12.5,0.9,17.7,2.7l0.4,0.2l0.4,0.2c11.4,4.3,17.2,10.3,21.4,15.7
					l0.2,0.3l0.6,0.5c3.8,3,7,6.6,9.5,10.7l0.8,1.3l0.7,1.3c5.6,11.4,3.8,21.9,3.1,25.9l0,0.2c-0.5,2.9-1.2,5.8-2.3,8.5
					c-0.4,2.7-1,5.3-1.9,7.8c-1.5,4.5-3.7,8.8-6.5,12.7c-1.6,2.3-3.4,4.4-5.5,6.4c-0.7,0.7-1.2,1.6-1.3,2.6
					c-0.1,0.6-0.2,1.2-0.3,1.8c-1.6,8.8-5.5,14.9-7,17.3l-4.7,6.8c-5.7,7.1-12.5,11.8-20.7,14.3l-2,0.6l-2.1,0.4
					c-2.5,0.4-4.9,0.6-7.4,0.6c-0.3,0-0.7,0-1.1,0H119l-0.4,0l-0.5,0h0c-0.9,0-1.9,0.2-2.8,0.5C110,298.8,104,299.6,96.7,299.6
					L96.7,299.6z"/>
				
					<linearGradient id="SVGID_00000068654898176077017010000011311026652662213519_" gradientUnits="userSpaceOnUse" x1="163.6995" y1="215.8756" x2="294.0061" y2="78.5519" gradientTransform="matrix(1 0 0 -1 -120.9449 377.3622)">
					<stop  offset="0.2057" style="stop-color:#89D0FF"/>
					<stop  offset="0.3984" style="stop-color:#EBBF9A"/>
					<stop  offset="0.6015" style="stop-color:#EB80DA"/>
					<stop  offset="0.8411" style="stop-color:#A281FF"/>
				</linearGradient>
				
					<path style="fill:none;stroke:url(#SVGID_00000068654898176077017010000011311026652662213519_);stroke-width:0.8533;stroke-miterlimit:10;" d="
					M96.7,294.9c-4.3,0-8.5-0.3-12-0.6l-0.8-0.1l-0.8-0.1c-0.5-0.1-1.1-0.1-1.8-0.2c-3.4-0.4-9-1-15.2-3.9l-0.9-0.4l-0.9-0.5
					c-12-6.8-16.5-16.8-19.2-22.8c-0.2-0.4-0.4-1-0.6-1.4c-1.2-2.5-2.1-4.9-2.7-7.1l-0.1-0.4l-0.1-0.4c-1.8-6.3-2.2-11.6-1.4-16.8
					c0.8-5.2,2.8-10,6.2-15.1l2.6-4.2c0.5-0.7,0.8-1.6,0.9-2.4c1.3-7.2,4.7-12.2,6.2-14.5l0.2-0.3l0.1-0.1c0-0.1,0.1-0.1,0.1-0.2
					c0.1-0.3,0.2-0.6,0.3-0.9c0.4-2.9,1.1-5.8,2.1-8.6l0.1-0.4L59,193c0-0.1,0.1-0.2,0.2-0.6c0.7-2.2,2.3-6.8,6.2-11.7l1.4-1.8
					l1.5-1.3c3.9-3.6,8.6-6.2,13.7-7.7c2.9-0.9,5.9-1.4,8.9-1.6l0.3,0l0.4,0c0.5,0,1,0,1.5,0c2.2,0,4.3-0.6,6.4-0.2
					c1.6,0.3,3.3,0.2,4.9-0.5c2.9-1.3,6.7-1.8,11.1-2.3c0.3,0,0.6-0.1,0.8-0.1c0.6-0.1,1.5-0.2,2.6-0.3c1.9-0.2,4.9-0.4,8.2-0.4
					c6.1,0,11.3,0.8,15.9,2.4l0.4,0.1l0.4,0.1c10.1,3.8,15.1,8.9,19,13.9c0.2,0.3,0.4,0.6,0.5,0.7l0.1,0.1l0.7,0.7l0.1,0.1
					c3.4,2.6,6.2,5.8,8.4,9.4l0.6,1.1l0.6,1.1c4.8,9.8,3.3,18.7,2.7,22.5l0,0.2c-0.5,2.8-1.2,5.5-2.2,8.1c-0.3,2.5-0.9,5-1.7,7.5
					c-1.3,4-3.2,7.8-5.7,11.2c-1.7,2.4-3.6,4.6-5.8,6.5c-1,0.9-1.6,2.2-1.8,3.5c-0.1,1-0.2,2-0.4,2.9c-1.4,7.7-4.8,13.1-6.4,15.5
					l-3.8,5.6c-5.1,6.6-11.1,10.8-18.5,13.1l-1.7,0.5l-1.8,0.3c-2.1,0.4-4.3,0.6-6.5,0.6c-0.3,0-0.6,0-1,0h-0.1h-0.2
					c0,0-0.1,0-0.2,0l-0.4,0l-0.4,0l-0.8,0c-1,0-2,0.2-3,0.5C109.3,294.2,103.6,294.9,96.7,294.9L96.7,294.9z"/>
				
					<linearGradient id="SVGID_00000175300545019518393610000009698791856293162644_" gradientUnits="userSpaceOnUse" x1="169.2429" y1="210.3658" x2="288.5066" y2="84.0736" gradientTransform="matrix(1 0 0 -1 -120.9449 377.3622)">
					<stop  offset="0.2057" style="stop-color:#89D0FF"/>
					<stop  offset="0.3984" style="stop-color:#EBBF9A"/>
					<stop  offset="0.6015" style="stop-color:#EB8280"/>
					<stop  offset="0.8411" style="stop-color:#A281FF"/>
				</linearGradient>
				
					<path style="fill:none;stroke:url(#SVGID_00000175300545019518393610000009698791856293162644_);stroke-width:0.8;stroke-miterlimit:10;" d="
					M96.7,289.4c-4.1,0-8.2-0.3-11.5-0.5l-0.7-0.1l-0.7-0.1c-0.6-0.1-1.3-0.2-1.9-0.2c-3.2-0.3-8.1-0.9-13.5-3.4l-0.7-0.3l-0.7-0.4
					c-10.4-5.9-14.3-14.5-16.8-20.2c-0.2-0.5-0.5-1-0.7-1.6c-1.1-2.2-1.8-4.4-2.5-6.4l-0.1-0.3l-0.1-0.3c-1.5-5.5-2-10.1-1.3-14.5
					c0.7-4.5,2.4-8.6,5.5-13.1l0.4-0.5l0.4-0.5c0.3-0.3,0.5-0.6,0.7-0.9l1.6-2.8c0.5-0.9,0.9-1.9,1-3c1-6.4,4.1-11,5.5-13.1l0,0
					c0.1-0.1,0.2-0.3,0.2-0.4l0.3-0.5c0.1-0.3,0.3-0.6,0.4-1c0.1-0.4,0.3-1,0.5-1.5c0.3-2.7,1-5.4,1.9-8l0.1-0.3l0.1-0.3
					c0.1-0.3,0.2-0.5,0.3-0.9c0.7-2,1.9-5.8,5.3-10l1.2-1.4l1.2-1.1c3.3-3,7.3-5.3,11.6-6.6c2.5-0.7,5.1-1.2,7.7-1.3l0.2,0l0.3,0
					c0.4,0,0.8,0,1.2,0c2.2,0,4.5,0.3,6.6,0.8c1.9,0.5,3.9,0.3,5.6-0.6c2.8-1.3,6.5-2.8,10.9-3.3c0.3,0,0.6-0.1,0.8-0.1
					c0.5-0.1,1.4-0.2,2.5-0.3c1.8-0.2,4.6-0.4,7.6-0.4c5.5,0,10.1,0.7,14.1,2.1l0.3,0.1l0.3,0.1c9.3,3.5,13.5,8.1,16.6,12.1
					c0.7,0.9,0.8,1,1.3,1.5l0.6,0.5l0.2,0.2c1.5,1.2,4.7,3.6,7.4,8.1l0.5,0.9l0.4,0.9c4,8.2,2.8,15.6,2.2,19.2l0,0.2
					c-0.4,2.6-1.2,5.2-2.2,7.6l0,0.2c-0.3,2.3-0.8,4.6-1.5,6.9c-1.1,3.5-2.8,6.8-5,9.8c-1.8,2.6-4,4.9-6.5,6.9
					c-0.6,0.5-1.1,1.1-1.4,1.7c-0.3,0.7-0.5,1.4-0.6,2.2c-0.1,1.5-0.2,2.9-0.5,4.4c-1.2,6.7-4.2,11.4-5.7,13.7l-3,4.4
					c-4.5,6-9.8,9.9-16.2,11.8l-1.3,0.4l-1.4,0.2c-1.8,0.3-3.7,0.5-5.5,0.5c-0.3,0-0.6,0-0.9,0h-0.1h-0.3c-0.1,0-0.2,0-0.6,0l-0.3,0
					l-0.3,0l-1.5,0.1c-1.1,0-2.1,0.2-3.2,0.6C108.6,288.7,103.3,289.4,96.7,289.4L96.7,289.4z"/>
				
					<linearGradient id="SVGID_00000072252130097440594890000017679058210279706777_" gradientUnits="userSpaceOnUse" x1="174.7832" y1="204.8387" x2="282.9794" y2="89.6107" gradientTransform="matrix(1 0 0 -1 -120.9449 377.3622)">
					<stop  offset="0.2057" style="stop-color:#89D0FF"/>
					<stop  offset="0.3984" style="stop-color:#EBBF9A"/>
					<stop  offset="0.6015" style="stop-color:#EB80E7"/>
					<stop  offset="0.8411" style="stop-color:#A281FF"/>
				</linearGradient>
				
					<path style="fill:none;stroke:url(#SVGID_00000072252130097440594890000017679058210279706777_);stroke-width:0.7466;stroke-miterlimit:10;" d="
					M96.7,283.9c-4,0-7.8-0.3-11.1-0.5l-0.5,0l-0.5-0.1c-0.7-0.1-1.4-0.2-2.1-0.2c-3-0.3-7.1-0.8-11.7-2.9l-0.6-0.3l-0.5-0.3
					c-8.8-5-12.1-12.3-14.5-17.6c-0.2-0.6-0.5-1.1-0.8-1.7c-1-2-1.7-4-2.2-5.7l-0.1-0.3l-0.1-0.3c-2.6-9.2-1.6-15.6,3.5-23l0.3-0.4
					l0.3-0.4c0.3-0.4,0.7-0.8,1-1.2c0.5-0.6,0.9-1.2,1.5-1.9c0.3-0.4,0.6-0.8,0.8-1.3l0.6-1.5c0.2-0.6,0.4-1.3,0.5-2
					c0.5-5.9,3.4-10.2,4.8-12.3l0,0c0.1-0.2,0.3-0.4,0.3-0.5l0.3-0.5l0.1-0.1c0.2-0.4,0.5-1.1,0.8-1.9c0.2-0.5,0.4-1.4,0.7-2.1
					c0,0,0-0.1,0-0.1c0.3-2.5,0.8-4.9,1.7-7.2l0.1-0.2l0.1-0.2c0.2-0.4,0.3-0.7,0.4-1.2c0.6-1.8,1.6-4.9,4.3-8.2l0.9-1.1l0.9-0.8
					c6.4-5.8,13.6-6.3,16-6.5l0.2,0l0.3,0c0.3,0,0.7,0,1,0c2.9,0,5.7,0.6,8.3,1.7c0.5,0.2,1,0.3,1.5,0.3c0.5,0,1-0.2,1.4-0.4h0
					c2.4-1.4,6.9-4,12.6-4.7c0.3,0,0.5-0.1,0.7-0.1c0.5-0.1,1.3-0.2,2.3-0.3c1.7-0.2,4.3-0.4,7.1-0.4c4.8,0,8.9,0.6,12.3,1.8
					l0.2,0.1l0.2,0.1c8,3,11.4,6.8,14.2,10.4c0.8,1,1.1,1.4,2,2.2l0.4,0.4l0.4,0.4l0.3,0.2c1.4,1,3.9,3,6.1,6.7l0.4,0.6l0.3,0.7
					c3.2,6.6,2.2,12.6,1.7,15.8l0,0.2c-0.4,2.3-1.1,4.6-2,6.8l-0.1,0.2c0,0,0,0.1,0,0.2c0,0.2-0.1,0.4-0.1,0.6l0,0.3
					c-0.2,2-0.7,3.9-1.3,5.8c-1,3-2.4,5.8-4.2,8.3c-1.8,2.6-3.9,4.7-6.1,6.4c-1,0.7-1.8,1.7-2.4,2.8c-0.6,1.1-0.9,2.3-0.9,3.6
					c0,1.6-0.2,3.1-0.5,4.6c-1.1,5.7-3.5,9.5-5,11.9l-2.2,3.2c-3.9,5.4-8.4,8.9-13.9,10.5l-0.3,0.1c-0.5,0.1-0.9,0.3-1.4,0.3
					l-0.3,0.1c-1.5,0.3-3.1,0.4-4.6,0.4c-0.3,0-0.5,0-0.8,0h0c-0.1,0-0.3,0-0.4,0c-0.1,0-0.4,0-0.9,0l-0.2,0l-0.2,0
					c-0.7,0-1.7,0.1-2.5,0.1c-1.1,0-2.2,0.3-3.3,0.6C107.8,283.2,103,283.9,96.7,283.9L96.7,283.9z"/>
				<g>
					
						<linearGradient id="SVGID_00000008868964787355368720000000271267510181632141_" gradientUnits="userSpaceOnUse" x1="180.3131" y1="199.3218" x2="277.4619" y2="95.1676" gradientTransform="matrix(1 0 0 -1 -120.9449 377.3622)">
						<stop  offset="0.2057" style="stop-color:#89D0FF"/>
						<stop  offset="0.3984" style="stop-color:#EBBF9A"/>
						<stop  offset="0.6015" style="stop-color:#EB80D3"/>
						<stop  offset="0.8411" style="stop-color:#A281FF"/>
					</linearGradient>
					
						<path style="fill:none;stroke:url(#SVGID_00000008868964787355368720000000271267510181632141_);stroke-width:0.6933;stroke-miterlimit:10;" d="
						M96.7,278.4c-3.8,0-7.5-0.3-10.7-0.5l-0.3,0l-0.3,0c-0.8-0.1-1.5-0.2-2.2-0.3c-2.8-0.3-6.2-0.7-10-2.4l-0.4-0.2l-0.3-0.2
						c-7.2-4.1-10-10.2-12.1-15.1c-0.3-0.6-0.6-1.2-0.8-1.8c-0.9-1.7-1.4-3.4-1.9-4.9l-0.1-0.2l0-0.2c-2.1-7.6-1.4-12.4,2.7-18.4
						l0.2-0.3l0.2-0.3c0.4-0.5,0.7-0.9,1-1.3c1.1-1.4,2.1-2.8,3.7-4.4c0.3-0.4,0.5-0.8,0.6-1.3l0.1-1.8l0-0.6l0-0.6
						c0.2-4.9,2.6-8.6,3.9-10.5c0.2-0.2,0.3-0.5,0.4-0.6l0.2-0.4l0.2-0.3c0.2-0.4,0.9-1.8,1.4-3.1c0.2-0.6,0.5-1.6,0.8-2.4
						c0.1-0.3,0.1-0.3,0.2-0.9c0.2-2.1,0.7-4.1,1.4-6l0.1-0.2l0.1-0.2c0.2-0.5,0.3-0.9,0.5-1.4c0.5-1.6,1.3-3.9,3.4-6.5l0.6-0.7
						l0.6-0.5c4.5-4.1,9.4-4.9,12.7-5.1l0.1,0h0.2c0.2,0,0.5,0,0.7,0c2.8,0,6.2,1.4,8,2.2c0.4,0.2,0.9,0.3,1.3,0.3
						c0.5,0,0.9-0.1,1.4-0.2c1.1-0.4,2.2-0.9,3.2-1.4c2.3-1.3,6-3.5,10.7-4c0.3,0,0.5-0.1,0.7-0.1c0.5-0.1,1.2-0.1,2.1-0.2
						c1.6-0.2,4-0.3,6.6-0.3c4.2,0,7.6,0.5,10.5,1.4l0.1,0.1l0.1,0.1c6.7,2.5,9.3,5.4,11.8,8.6c0.8,1,1.4,1.8,2.6,2.9l0.3,0.3
						l0.3,0.3c0.2,0.2,0.5,0.5,0.8,0.7c1.1,0.9,3.1,2.4,4.8,5.2l0.3,0.4l0.2,0.4c2.5,5,1.7,9.7,1.2,12.5l0,0.2
						c-0.3,1.9-0.9,3.8-1.6,5.6v0c-0.2,0.5-0.4,1-0.4,1.5c-0.1,0.4-0.1,0.6-0.1,1l0,0.3c-0.2,1.6-0.5,3.2-1.1,4.7
						c-0.8,2.5-2,4.8-3.5,6.8c-2.2,3.2-4.8,5.5-8,6.9c-0.8,0.3-1.4,0.9-1.9,1.6c-0.5,0.7-0.7,1.5-0.8,2.3c0,0.3,0,0.6,0,0.8
						c0.2,2.4,0.3,5.1-0.2,8c-0.9,4.7-2.8,7.8-4.3,10.1c0,0-6.8,9.5-13,11.4l-0.7,0.2l-0.7,0.1c-1.2,0.2-2.4,0.3-3.6,0.3
						c-0.2,0-0.5,0-0.7,0h0c-0.2,0-0.3,0-0.5,0c-0.2,0-0.6,0-1.3,0l-0.2,0h-0.1c-2.4,0.1-4.6,0.2-5.2,0.3c-0.3,0.1-0.7,0.1-1,0.3
						C107.6,277.6,103,278.4,96.7,278.4L96.7,278.4z"/>
					
						<linearGradient id="SVGID_00000072989739063693790560000002863000919125296012_" gradientUnits="userSpaceOnUse" x1="185.8605" y1="193.8227" x2="271.955" y2="100.7" gradientTransform="matrix(1 0 0 -1 -120.9449 377.3622)">
						<stop  offset="0.2057" style="stop-color:#89D0FF"/>
						<stop  offset="0.3984" style="stop-color:#EBBF9A"/>
						<stop  offset="0.6015" style="stop-color:#A280EB"/>
						<stop  offset="0.8411" style="stop-color:#A281FF"/>
					</linearGradient>
					
						<path style="fill:none;stroke:url(#SVGID_00000072989739063693790560000002863000919125296012_);stroke-width:0.6933;stroke-miterlimit:10;" d="
						M96.7,272.8c-3.6,0-7.2-0.2-10.3-0.5l-0.2,0l-0.2,0c-0.8-0.1-1.6-0.2-2.4-0.3c-2.6-0.3-5.3-0.6-8.3-2l-0.2-0.1l-0.2-0.1
						c-5.7-3.2-7.8-7.9-9.8-12.5c-0.3-0.7-0.6-1.3-0.9-2c-0.7-1.4-1.2-2.8-1.6-4.2l0-0.1l0-0.1c-1.7-6-1.3-9.1,1.9-13.7l0.1-0.1
						l0.1-0.1c0.4-0.5,0.7-0.9,1-1.4c1.5-2,2.9-3.8,5.8-6.5l0,0c0.2-0.2,0.4-0.5,0.4-0.8c0.1-0.3,0.1-0.6,0-0.9l-0.5-1.5
						c-0.1-0.5-0.2-1-0.2-1.5v0l0-0.4l0-0.3c0.1-3.3,1.9-5.9,3-7.7c0.2-0.3,0.4-0.5,0.5-0.7l0.1-0.2l0.1-0.2
						c0.6-0.8,1.6-3.1,2.1-4.5c0.1-0.4,0.5-1.6,0.8-2.5c0.2-0.6,0.3-1.3,0.4-2c0.2-1.7,0.6-3.3,1.1-4.9l0-0.1l0-0.1
						c0.3-0.7,0.4-1.2,0.6-1.7c0.5-1.4,1-3,2.4-4.8l0.3-0.4l0.3-0.3c3.2-2.9,6.7-3.5,9.4-3.7h0.1h0.1c0.2,0,0.3,0,0.5,0
						c2.6,0,4.6,1.1,6,1.8l0.3,0.2l0,0c0.4,0.2,0.7,0.4,1,0.5c0.8,0.4,1.8,0.5,2.7,0.3c1.8-0.5,4.7-1.6,6.6-2.6l0,0
						c2-1.2,5.1-2.9,8.6-3.3c0.2,0,0.4-0.1,0.6-0.1c0.4-0.1,1.1-0.1,1.9-0.2c1.5-0.1,3.7-0.3,6.1-0.3c3.6,0,6.4,0.4,8.7,1.1l0.1,0
						l0.1,0c5.3,2,7.3,4.1,9.5,6.9c0.9,1.1,1.7,2.2,3.3,3.6l0.1,0.1l0.1,0.1c0.4,0.4,0.9,0.8,1.4,1.2c0.9,0.7,2.2,1.7,3.4,3.7
						l0.1,0.2l0.1,0.2c1.7,3.4,1.1,6.7,0.7,9.2l0,0.2c-0.2,1.5-0.7,3-1.3,4.4c-0.4,0.8-0.6,1.7-0.8,2.6c-0.1,0.5-0.2,0.9-0.2,1.3
						l0,0.3c-0.1,1.2-0.4,2.5-0.8,3.7c-0.6,1.9-1.5,3.7-2.7,5.4c-2,2.9-4.3,4.7-7.3,5.7c-1.4,0.5-2.7,1.4-3.5,2.6l-0.2,0.4l-0.3,0.3
						c-0.8,0.9-0.5,4.2-0.4,6.2c0.1,2.2,0.3,4.5-0.1,6.6c-0.7,3.6-2.2,6.1-3.6,8.3c0,0-5.2,7.5-9.9,8.9l-0.3,0.1l-0.4,0.1
						c-0.9,0.2-1.8,0.2-2.7,0.2c-0.2,0-0.4,0-0.6,0c-0.2,0-0.4,0-0.7,0c-0.3,0-0.8,0-1.6,0.1h-0.1h-0.1c-3.1,0.1-5,0.2-6.1,0.4
						c-0.7,0.1-1.4,0.3-2.1,0.6C106.2,272.3,102.3,272.8,96.7,272.8L96.7,272.8z"/>
				</g>
			</g>
		</g>
	</g>
	<g>
		<path class="st10" d="M185.2,268h11.7l3.8-16.3h27.2l3.8,16.3h12l-18.6-76.7h-21.3L185.2,268z M203,241.6l9.4-40.5h3.7l9.4,40.5
			H203z"/>
		<path class="st10" d="M250.9,289.1H261v-19.7v-6.8c5.7,2.4,10.7,6.4,17,6.4c14.1,0,22.8-10.5,22.8-30.1c0-19.7-8.7-30.1-23-30.1
			c-6.6,0-11.5,4.2-17.1,7.1v-6h-9.8L250.9,289.1z M261.8,246.6v-15.3c0-8.1,4.7-12.5,12.8-12.5c10,0,14.6,6.4,14.6,20.1
			c0,13.7-4.6,20.1-14.6,20.1C266.5,259.1,261.8,254.8,261.8,246.6z"/>
		<path class="st10" d="M333.4,269.1c13.8,0,22.9-7.1,24.1-18.1h-10.4c-1.1,6.1-6.4,8.8-13.3,8.8c-10.2,0-15-5.9-15.5-19.1h39.5
			c2.1-21.9-7-31.8-24-31.8c-17.2,0-26.8,10.4-26.8,30.1C307,258.6,316.4,269.1,333.4,269.1L333.4,269.1z M318.6,232.4
			c1.3-9.7,6.1-14.5,14.9-14.5c9.2,0,13.7,5.1,13.7,14.5H318.6z"/>
		<path class="st10" d="M394.7,269.8c17.6,0,26.5-10,27.6-28.7h-11.5c-0.8,12.2-5.9,18-16.1,18c-12,0-16.9-8.3-16.9-29.5
			c0-20.7,5.1-29.5,16.9-29.5c10,0,15.1,6.1,15.9,17.9h11.3c-1.2-18.6-9.7-28.6-27.2-28.6c-19.7,0-28.7,12.6-28.7,40.1
			C366,257.2,375,269.8,394.7,269.8z"/>
		<path class="st10" d="M454.7,269.1c16.9,0,26.2-10.5,26.2-30.1c0-19.7-9.3-30.1-26.2-30.1c-16.9,0-26.2,10.4-26.2,30.1
			C428.5,258.6,437.8,269.1,454.7,269.1L454.7,269.1z M440.1,239c0-14,4.6-20.3,14.6-20.3c10,0,14.6,6.3,14.6,20.3
			c0,14-4.6,20.3-14.6,20.3C444.7,259.3,440.1,253,440.1,239z"/>
		<path class="st10" d="M492.8,268h10.9v-9.6v-48.5h-19.6v9.6h8.7v38.9V268z"/>
		<path class="st10" d="M512.9,268h10.9v-36.6c0-8,4.7-12.3,13.5-12.3c8.4,0,12.3,3.9,12.3,12.3V268h10.9v-39.5
			c0-13-6.2-19.7-19.1-19.7c-7.4,0-12.4,3.9-18.7,7.1v-6h-9.8L512.9,268z"/>
		<path class="st10" d="M490.7,189.9h11.7v10.9h-11.7V189.9z"/>
	</g>
</g>
</svg>
